<?xml version="1.0" standalone="no"?>
<!DOCTYPE svg PUBLIC "-//W3C//DTD SVG 20010904//EN"
 "http://www.w3.org/TR/2001/REC-SVG-20010904/DTD/svg10.dtd">
<svg version="1.0" xmlns="http://www.w3.org/2000/svg"
 width="1392.000000pt" height="1392.000000pt" viewBox="0 0 1392.000000 1392.000000"
 preserveAspectRatio="xMidYMid meet">
<metadata>
Created by potrace 1.14, written by Peter Selinger 2001-2017
</metadata>
<g transform="translate(0.000000,1392.000000) scale(0.100000,-0.100000)"
fill="#000000" stroke="none">
<path d="M6580 10165 c0 -6 -21 -11 -47 -11 -71 -1 -265 -14 -288 -20 -11 -2
-45 -6 -75 -9 -30 -2 -55 -4 -55 -5 0 -2 -119 -13 -157 -14 -21 -1 -38 -3 -38
-6 0 -3 -12 -5 -27 -6 -41 -1 -198 -20 -198 -24 0 -1 -16 -3 -35 -5 -62 -6
-134 -15 -160 -20 -14 -2 -36 -7 -50 -10 -14 -2 -41 -7 -60 -10 -19 -3 -53
-11 -75 -17 -22 -5 -51 -12 -65 -15 -38 -8 -44 -9 -65 -16 -11 -3 -31 -8 -45
-11 -23 -5 -77 -19 -125 -32 -11 -3 -27 -7 -35 -8 -9 -1 -20 -5 -25 -8 -6 -3
-26 -9 -45 -13 -19 -4 -39 -10 -45 -13 -5 -4 -14 -7 -20 -8 -23 -4 -242 -78
-327 -110 -51 -20 -99 -36 -105 -37 -7 0 -13 -4 -13 -9 0 -4 -6 -8 -14 -8 -30
0 -311 -135 -445 -213 -67 -40 -85 -47 -92 -35 -18 32 -127 180 -169 229 -174
204 -370 315 -594 335 -79 7 -79 7 -86 5 -3 -1 -31 -3 -64 -6 -162 -10 -311
-82 -393 -189 -43 -56 -99 -163 -108 -206 -4 -19 -10 -39 -13 -44 -15 -25 -21
-230 -9 -301 4 -22 10 -56 13 -75 4 -19 11 -41 17 -47 5 -7 7 -13 4 -13 -19 0
76 -205 138 -300 60 -92 70 -104 163 -197 46 -46 79 -83 72 -83 -6 0 -16 -5
-23 -10 -7 -6 -41 -33 -77 -61 -200 -155 -392 -388 -517 -629 -56 -108 -133
-301 -133 -333 0 -4 -7 -21 -15 -37 -9 -17 -13 -35 -10 -40 3 -6 1 -10 -6 -10
-7 0 -10 -2 -7 -6 3 -3 2 -22 -3 -42 -26 -102 -37 -161 -43 -223 -2 -14 -5
-30 -7 -35 -9 -17 -13 -119 -13 -314 0 -175 3 -226 20 -350 7 -50 33 -178 45
-225 6 -22 12 -47 14 -56 2 -9 22 -71 45 -139 45 -133 78 -210 141 -333 43
-85 42 -67 23 -242 -3 -27 -7 -79 -10 -115 -4 -63 -8 -117 -19 -250 -11 -133
-16 -207 -19 -270 -2 -36 -4 -65 -5 -65 -1 0 -4 -49 -7 -110 -2 -60 -6 -141
-9 -180 -4 -72 -13 -285 -20 -480 -20 -515 -26 -2038 -11 -2990 4 -269 6 -530
6 -580 -1 -49 -1 -94 -1 -100 1 -5 2 -71 4 -145 2 -74 6 -145 11 -158 13 -38
79 -62 116 -42 14 7 20 7 20 0 0 -7 1442 -10 4620 -10 l4620 0 30 28 c32 29
32 30 45 202 6 80 11 162 22 415 9 193 9 1514 0 1885 -11 463 -16 706 -22
1050 -8 498 -21 962 -30 1115 -2 39 -7 126 -10 195 -4 69 -9 157 -11 195 -3
39 -6 102 -8 140 -3 39 -5 70 -6 70 -1 0 -3 35 -6 78 -3 75 -2 80 29 125 62
89 171 290 168 307 -1 3 5 13 14 21 8 9 15 23 15 33 0 9 4 21 9 27 5 5 25 59
46 119 20 61 41 119 45 130 5 11 12 34 16 50 4 17 8 35 10 40 24 96 46 221 47
267 1 27 5 48 8 48 22 0 18 515 -6 630 -2 13 -7 42 -11 65 -3 22 -10 58 -15
80 -5 22 -12 51 -15 65 -2 14 -9 39 -15 56 -5 17 -11 40 -13 50 -3 10 -9 33
-16 49 -6 17 -11 30 -10 30 1 0 -4 14 -10 30 -7 17 -23 59 -36 95 -14 36 -34
80 -44 98 -11 18 -20 37 -20 42 0 19 -134 233 -201 320 -105 138 -260 289
-390 383 -64 46 -63 35 -7 117 98 142 219 377 215 420 0 3 5 16 12 29 7 13 15
38 18 55 2 17 8 43 12 57 10 29 8 252 -2 287 -4 12 -9 30 -11 40 -10 42 -57
132 -99 189 -48 65 -125 131 -188 164 -111 56 -319 81 -451 54 -32 -7 -58 -10
-58 -8 0 3 -7 0 -15 -7 -8 -7 -15 -10 -15 -7 0 10 -145 -51 -201 -85 -113 -69
-235 -181 -339 -313 -30 -39 -60 -76 -67 -83 -7 -7 -13 -17 -13 -22 0 -23 -35
-14 -106 27 -44 25 -149 81 -234 123 -172 86 -282 134 -525 227 -66 25 -299
101 -365 118 -191 51 -250 66 -273 70 -15 3 -52 12 -83 20 -31 8 -59 14 -62
14 -4 -1 -9 0 -12 1 -6 2 -27 7 -65 14 -16 3 -39 8 -51 10 -32 6 -264 44 -309
50 -38 6 -105 14 -170 21 -16 2 -56 6 -87 9 -31 3 -83 8 -115 11 -74 7 -227
16 -319 19 -39 2 -76 6 -84 11 -9 6 -11 4 -5 -5 6 -9 4 -11 -6 -4 -17 10 -348
13 -370 3 -8 -4 -21 -4 -29 1 -8 5 -19 6 -25 2 -15 -10 -59 -8 -67 3 -5 7 -8
7 -8 0z"/>
</g>
</svg>
